<?xml version="1.0" encoding="utf-8"?>
<!-- Generator: Adobe Illustrator 13.0.0, SVG Export Plug-In  -->
<!DOCTYPE svg PUBLIC "-//W3C//DTD SVG 1.1//EN" "http://www.w3.org/Graphics/SVG/1.1/DTD/svg11.dtd" [
	<!ENTITY ns_flows "http://ns.adobe.com/Flows/1.0/">
]>
<svg version="1.1"
	 xmlns="http://www.w3.org/2000/svg" xmlns:xlink="http://www.w3.org/1999/xlink" xmlns:a="http://ns.adobe.com/AdobeSVGViewerExtensions/3.0/"
	 x="0px" y="0px" width="285px" height="108px" viewBox="0 0 285 108" enable-background="new 0 0 285 108" xml:space="preserve">
<defs>
</defs>
<path fill="#FFFFFF" d="M150.48,62.567c-0.801,0.238-1.68,0.479-2.719,0.636c-1.043,0.242-2.082,0.403-3.202,0.563
	c-1.118,0.16-2.239,0.237-3.438,0.397c-1.199,0.082-2.242,0.16-3.359,0.16c-2.563,0-4.883-0.397-6.883-1.121
	c-2-0.718-3.68-1.84-5.039-3.276c-1.36-1.441-2.399-3.121-3.121-5.121c-0.719-2-1.117-4.238-1.039-6.719
	c0-2.562,0.32-4.801,0.961-6.801c0.64-2,1.519-3.761,2.718-5.199c1.2-1.441,2.641-2.48,4.403-3.281
	c1.679-0.719,3.679-1.121,5.918-1.121c1.199,0,2.32,0.16,3.281,0.402c0.961,0.238,1.918,0.559,2.961,1.039L142,19.048l8.801-1.363
	L150.48,62.567z M130.641,47.767c0,2.719,0.558,4.879,1.839,6.558c1.2,1.679,3.04,2.481,5.442,2.481c0.797,0,1.519,0,2.156-0.078
	c0.641-0.082,1.203-0.16,1.684-0.242l0.078-16c-0.559-0.321-1.281-0.641-2.16-0.879c-0.879-0.243-1.758-0.403-2.719-0.403
	C132.719,39.204,130.641,42.087,130.641,47.767L130.641,47.767z M130.641,47.767"/>
<path fill="#FFFFFF" d="M168.56,23.525c0,1.601-0.56,2.882-1.599,3.839c-1.039,0.961-2.319,1.364-3.68,1.364
	c-1.359,0-2.64-0.481-3.679-1.442c-1.043-0.961-1.603-2.238-1.524-3.84c0-1.601,0.563-2.878,1.602-3.839
	c1.039-0.961,2.32-1.36,3.68-1.36s2.641,0.481,3.68,1.438C168.078,20.646,168.56,21.927,168.56,23.525L168.56,23.525z
	 M167.603,63.685h-8.802l0.078-31.117h8.801L167.603,63.685z M167.603,63.685"/>
<path fill="#FFFFFF" d="M204.879,48.247c0,2.399-0.319,4.559-0.879,6.559c-0.559,2-1.44,3.68-2.641,5.121
	c-1.121,1.437-2.559,2.479-4.238,3.276c-1.68,0.801-3.68,1.203-5.84,1.203c-1.203,0-2.402-0.16-3.441-0.402
	c-1.039-0.237-2.078-0.559-3.039-1.038v11.68H176l0.16-41.039c0.801-0.243,1.68-0.481,2.719-0.641
	c1.043-0.238,2.082-0.398,3.199-0.559c1.121-0.16,2.242-0.242,3.442-0.402c1.198-0.078,2.241-0.16,3.358-0.16
	c2.562,0,4.883,0.402,6.883,1.203c2,0.797,3.68,1.84,5.039,3.277c1.359,1.442,2.398,3.121,3.121,5.121
	C204.56,43.446,204.879,45.767,204.879,48.247L204.879,48.247z M195.922,48.407c0-2.722-0.562-4.882-1.844-6.562
	c-1.199-1.68-3.039-2.481-5.437-2.481c-0.802,0-1.521,0-2.161,0.082c-0.641,0.079-1.199,0.161-1.68,0.239l-0.082,15.921
	c0.562,0.32,1.281,0.64,2.16,0.879c0.883,0.242,1.763,0.402,2.724,0.402C193.762,56.888,195.84,54.087,195.922,48.407
	L195.922,48.407z M195.922,48.407"/>
<path fill="#FFFFFF" d="M224.078,64.406c-2.558-0.082-4.637-0.32-6.238-0.882c-1.602-0.478-2.879-1.278-3.762-2.161
	c-0.957-0.957-1.519-2.078-1.918-3.359c-0.32-1.358-0.48-2.801-0.48-4.479l0.082-34.239l8.798-1.359l-0.079,33.918
	c0,0.801,0.079,1.519,0.161,2.16c0.077,0.641,0.319,1.198,0.64,1.602c0.321,0.397,0.797,0.8,1.438,1.039
	c0.641,0.242,1.441,0.479,2.562,0.558L224.078,64.406z M224.078,64.406"/>
<path fill="#3BB771" d="M229.603,59.767c0-0.879,0.159-1.681,0.397-2.321c0.238-0.64,0.642-1.121,1.121-1.519
	c0.481-0.402,1.039-0.642,1.598-0.801c0.641-0.16,1.281-0.238,2-0.238c0.641,0,1.281,0.078,1.923,0.238
	c0.64,0.159,1.12,0.48,1.597,0.878c0.48,0.402,0.801,0.884,1.121,1.521c0.243,0.64,0.402,1.363,0.402,2.32
	c0,0.883-0.159,1.601-0.402,2.241c-0.238,0.642-0.641,1.117-1.121,1.521c-0.477,0.397-0.957,0.718-1.597,0.879
	c-0.642,0.16-1.282,0.242-1.923,0.242c-0.719,0-1.359-0.082-2-0.321c-0.641-0.16-1.116-0.479-1.598-0.882
	c-0.479-0.399-0.801-0.879-1.043-1.521C229.68,61.363,229.603,60.567,229.603,59.767L229.603,59.767z M229.603,59.767"/>
<path fill="#FFFFFF" d="M253.762,55.685c0-1.438-0.159-2.399-0.562-3.039c-0.398-0.559-0.961-0.879-1.84-0.879
	c-0.238,0-0.559,0-0.879,0.078c-0.32,0-0.559,0.082-0.878,0.082v12h-4.403l0.082-15.039c0.398-0.082,0.797-0.16,1.278-0.32
	c0.479-0.082,1.043-0.243,1.601-0.321c0.559-0.082,1.121-0.16,1.762-0.242c0.559-0.078,1.199-0.078,1.758-0.078
	c1.121,0,2,0.16,2.719,0.398c0.723,0.321,1.281,0.641,1.762,1.039c0.641-0.476,1.36-0.796,2.16-1.039
	c0.801-0.238,1.602-0.398,2.239-0.398c1.28,0,2.241,0.16,3.043,0.559c0.796,0.32,1.437,0.8,1.918,1.441
	c0.479,0.641,0.8,1.359,0.96,2.238c0.16,0.883,0.238,1.84,0.238,2.883v8.797h-4.398v-8.238c0-1.441-0.16-2.403-0.559-3.039
	c-0.402-0.563-0.961-0.883-1.84-0.883c-0.242,0-0.562,0.082-0.961,0.16c-0.401,0.082-0.801,0.242-1.039,0.48
	c0.156,0.481,0.238,0.961,0.238,1.442c0,0.479,0.078,1.039,0.078,1.596v8.481h-4.398L253.762,55.685z M253.762,55.685"/>
<path fill="#FFFFFF" d="M269.922,56.324c0-1.358,0.238-2.557,0.638-3.596c0.401-1.043,0.961-1.922,1.679-2.563
	c0.723-0.719,1.523-1.199,2.403-1.597c0.879-0.321,1.839-0.563,2.8-0.563c2.238,0,3.918,0.723,5.2,2.082
	c1.28,1.359,1.918,3.359,1.918,5.999v0.88c0,0.319-0.079,0.559-0.079,0.801h-10c0.079,0.879,0.48,1.597,1.281,2.16
	c0.719,0.559,1.759,0.801,3.039,0.801c0.802,0,1.598-0.082,2.398-0.242c0.801-0.161,1.442-0.321,1.922-0.559l0.559,3.598
	c-0.238,0.082-0.559,0.242-0.961,0.32c-0.398,0.082-0.797,0.241-1.277,0.319c-0.48,0.082-1.043,0.16-1.52,0.242
	c-0.562,0.079-1.121,0.079-1.684,0.079c-1.438,0-2.636-0.239-3.679-0.641c-1.039-0.399-1.919-0.957-2.56-1.681
	c-0.641-0.719-1.199-1.597-1.52-2.558C270.078,58.567,269.922,57.445,269.922,56.324L269.922,56.324z M280.32,54.646
	c0-0.399-0.082-0.719-0.16-1.121c-0.082-0.399-0.238-0.637-0.48-0.957c-0.238-0.243-0.48-0.481-0.879-0.723
	c-0.32-0.16-0.801-0.238-1.28-0.238c-0.481,0-0.879,0.078-1.282,0.238c-0.316,0.16-0.636,0.402-0.879,0.641
	c-0.238,0.242-0.398,0.562-0.559,0.96c-0.159,0.399-0.241,0.719-0.32,1.122L280.32,54.646z M280.32,54.646"/>
<path fill="#FFFFFF" d="M184.078,85.927c0,0.641-0.078,1.276-0.238,1.84c-0.16,0.558-0.398,1.039-0.719,1.437
	c-0.32,0.403-0.723,0.724-1.199,0.961c-0.48,0.242-1.043,0.321-1.602,0.321c-0.32,0-0.641,0-0.961-0.079
	c-0.32-0.082-0.559-0.16-0.879-0.32v3.277H176V81.927c0.238-0.082,0.48-0.16,0.801-0.16c0.32-0.082,0.559-0.082,0.879-0.16
	c0.32-0.082,0.641-0.082,0.962-0.082h0.961c0.718,0,1.358,0.082,1.918,0.32c0.558,0.241,1.039,0.562,1.44,0.883
	c0.398,0.397,0.642,0.879,0.879,1.437C184,84.567,184.078,85.203,184.078,85.927L184.078,85.927z M181.603,85.927
	c0-0.802-0.161-1.359-0.481-1.841c-0.32-0.479-0.883-0.723-1.519-0.723h-0.642c-0.16,0-0.319,0-0.48,0.082v4.481
	c0.161,0.077,0.32,0.159,0.641,0.237c0.238,0.082,0.481,0.082,0.719,0.082C180.961,88.324,181.521,87.524,181.603,85.927
	L181.603,85.927z M181.603,85.927"/>
<path fill="#FFFFFF" d="M191.199,83.767c-0.238-0.082-0.48-0.082-0.801-0.16c-0.32-0.082-0.637-0.082-0.957-0.082h-0.562
	c-0.237,0-0.398,0.082-0.48,0.082v6.64h-2.477v-8.242c0.477-0.159,0.957-0.319,1.599-0.397c0.64-0.161,1.28-0.243,2-0.243H190
	c0.16,0,0.398,0,0.56,0.082c0.159,0.079,0.401,0.079,0.562,0.079s0.32,0.082,0.481,0.16L191.199,83.767z M191.199,83.767"/>
<path fill="#FFFFFF" d="M200.961,85.927c0,0.719-0.082,1.276-0.319,1.84c-0.243,0.558-0.481,1.039-0.88,1.437
	c-0.402,0.403-0.801,0.724-1.363,0.961c-0.559,0.242-1.117,0.321-1.757,0.321c-0.642,0-1.2-0.079-1.763-0.321
	c-0.559-0.237-0.957-0.558-1.358-0.961c-0.399-0.397-0.642-0.879-0.879-1.437c-0.243-0.563-0.321-1.199-0.321-1.84
	c0-0.642,0.078-1.281,0.321-1.841c0.237-0.562,0.479-1.039,0.879-1.44c0.401-0.399,0.8-0.719,1.358-0.961
	c0.562-0.239,1.121-0.321,1.681-0.321c0.64,0,1.202,0.082,1.761,0.321c0.559,0.242,0.961,0.562,1.359,0.961
	c0.398,0.401,0.641,0.879,0.88,1.44C200.801,84.646,200.961,85.285,200.961,85.927L200.961,85.927z M198.398,85.927
	c0-0.802-0.16-1.359-0.477-1.763c-0.319-0.397-0.723-0.64-1.28-0.64c-0.563,0-0.962,0.242-1.282,0.64
	c-0.32,0.403-0.48,1.039-0.48,1.763c0,0.801,0.16,1.358,0.48,1.84c0.32,0.479,0.719,0.64,1.282,0.64c0.558,0,0.961-0.242,1.28-0.64
	C198.238,87.285,198.398,86.728,198.398,85.927L198.398,85.927z M198.398,85.927"/>
<path fill="#FFFFFF" d="M210.961,86.004c0,0.724-0.082,1.281-0.319,1.841c-0.243,0.562-0.481,1.043-0.88,1.44
	c-0.402,0.399-0.801,0.719-1.363,0.961c-0.559,0.239-1.117,0.321-1.757,0.321c-0.642,0-1.2-0.082-1.763-0.321
	c-0.559-0.242-0.957-0.562-1.358-0.961c-0.399-0.397-0.642-0.879-0.879-1.44c-0.243-0.56-0.321-1.199-0.321-1.841
	c0-0.641,0.078-1.276,0.321-1.84c0.237-0.558,0.479-1.039,0.879-1.437c0.401-0.403,0.8-0.724,1.358-0.961
	c0.562-0.242,1.121-0.321,1.681-0.321c0.64,0,1.202,0.079,1.761,0.321c0.559,0.237,0.961,0.558,1.359,0.961
	c0.398,0.397,0.641,0.879,0.88,1.437C210.879,84.646,210.961,85.285,210.961,86.004L210.961,86.004z M208.48,86.004
	c0-0.801-0.16-1.358-0.48-1.758c-0.32-0.401-0.719-0.64-1.281-0.64c-0.559,0-0.957,0.238-1.277,0.64
	c-0.32,0.399-0.48,1.039-0.48,1.758c0,0.724,0.16,1.359,0.48,1.841c0.32,0.479,0.719,0.641,1.277,0.641
	c0.562,0,0.961-0.239,1.281-0.641C208.32,87.363,208.48,86.728,208.48,86.004L208.48,86.004z M208.48,86.004"/>
<path fill="#FFFFFF" d="M216.642,77.524c0.479,0,0.879,0.082,1.28,0.16c0.398,0.082,0.72,0.16,0.879,0.242l-0.48,2l-0.718-0.242
	c-0.243-0.078-0.481-0.078-0.724-0.078c-0.319,0-0.559,0-0.719,0.16c-0.238,0.078-0.398,0.16-0.48,0.319l-0.238,0.481
	c-0.082,0.16-0.082,0.398-0.082,0.636v0.403h3.039v2.078h-3.039v6.64h-2.48v-9.199c0-1.121,0.32-2,0.961-2.64
	C214.48,77.845,215.441,77.524,216.642,77.524L216.642,77.524z M216.642,77.524"/>
<path fill="#FFFFFF" d="M231.922,86.004c0,0.724-0.082,1.281-0.319,1.841c-0.243,0.562-0.481,1.043-0.884,1.44
	c-0.398,0.399-0.797,0.719-1.359,0.961c-0.559,0.239-1.121,0.321-1.757,0.321c-0.642,0-1.204-0.082-1.763-0.321
	c-0.559-0.242-0.961-0.562-1.359-0.961c-0.402-0.397-0.641-0.879-0.878-1.44c-0.243-0.56-0.321-1.199-0.321-1.841
	c0-0.641,0.078-1.276,0.321-1.84c0.237-0.558,0.476-1.039,0.878-1.437c0.398-0.403,0.801-0.724,1.359-0.961
	c0.559-0.242,1.121-0.321,1.681-0.321c0.64,0,1.198,0.079,1.761,0.321c0.559,0.237,0.957,0.558,1.36,0.961
	c0.397,0.397,0.64,0.879,0.879,1.437C231.84,84.728,231.922,85.363,231.922,86.004L231.922,86.004z M229.441,86.004
	c0-0.801-0.16-1.358-0.48-1.758c-0.319-0.401-0.723-0.64-1.281-0.64s-0.961,0.238-1.281,0.64c-0.32,0.399-0.477,1.039-0.477,1.758
	c0,0.802,0.156,1.359,0.477,1.841c0.32,0.479,0.723,0.641,1.281,0.641s0.962-0.239,1.281-0.641
	C229.281,87.363,229.441,86.806,229.441,86.004L229.441,86.004z M229.441,86.004"/>
<path fill="#FFFFFF" d="M237.68,77.606c0.48,0,0.88,0.078,1.281,0.16c0.398,0.078,0.719,0.16,0.879,0.237l-0.48,2l-0.718-0.237
	c-0.243-0.082-0.481-0.082-0.72-0.082c-0.319,0-0.562,0-0.723,0.16c-0.238,0.082-0.398,0.159-0.48,0.319l-0.238,0.481
	c-0.082,0.16-0.082,0.401-0.082,0.64v0.399h3.043v2.082h-3.043v6.64h-2.477v-9.203c0-1.117,0.316-2,0.957-2.636
	C235.441,77.927,236.398,77.606,237.68,77.606L237.68,77.606z M237.68,77.606"/>
<path fill="#FFFFFF" d="M247.281,88.728c0.48,0,0.797-0.082,0.957-0.16c0.16-0.082,0.321-0.243,0.321-0.481
	c0-0.159-0.161-0.401-0.399-0.562c-0.238-0.161-0.64-0.321-1.121-0.478c-0.397-0.159-0.719-0.319-1.039-0.479
	c-0.32-0.161-0.559-0.321-0.801-0.563c-0.238-0.237-0.398-0.479-0.48-0.801c-0.159-0.315-0.159-0.636-0.159-1.039
	c0-0.801,0.319-1.437,0.882-1.918c0.637-0.479,1.438-0.722,2.48-0.722c0.559,0,1.039,0.082,1.52,0.16
	c0.48,0.082,0.879,0.16,1.118,0.319l-0.399,1.923c-0.32-0.082-0.558-0.16-0.961-0.242c-0.32-0.078-0.719-0.078-1.121-0.16
	c-0.797,0-1.117,0.242-1.117,0.64c0,0.082,0,0.16,0.078,0.242c0,0.079,0.082,0.161,0.16,0.239c0.082,0.082,0.242,0.16,0.403,0.242
	c0.159,0.078,0.397,0.159,0.636,0.237c0.562,0.238,0.961,0.399,1.364,0.56c0.319,0.16,0.636,0.401,0.796,0.64
	c0.243,0.243,0.32,0.481,0.402,0.723c0.078,0.238,0.16,0.56,0.16,0.957c0,0.884-0.319,1.521-0.961,1.923
	c-0.641,0.397-1.52,0.641-2.719,0.641c-0.801,0-1.441-0.082-1.922-0.243c-0.48-0.16-0.879-0.238-1.039-0.32l0.398-2
	c0.402,0.16,0.884,0.32,1.281,0.402C246.398,88.646,246.879,88.728,247.281,88.728L247.281,88.728z M247.281,88.728"/>
<path fill="#FFFFFF" d="M255.281,84.888c0.239-0.242,0.48-0.563,0.719-0.802c0.238-0.319,0.48-0.562,0.719-0.883
	c0.242-0.237,0.48-0.558,0.723-0.797c0.238-0.242,0.398-0.479,0.559-0.64h2.961l-1.68,1.918c-0.562,0.64-1.203,1.203-1.84,1.922
	l1.039,1.039c0.32,0.401,0.719,0.879,1.04,1.281c0.319,0.397,0.64,0.879,0.878,1.358c0.242,0.481,0.48,0.879,0.723,1.2h-2.801
	c-0.16-0.321-0.398-0.641-0.641-0.961c-0.238-0.321-0.48-0.719-0.719-1.039c-0.242-0.321-0.48-0.719-0.801-1.04l-0.801-0.8v3.84
	h-2.48V78.086l2.48-0.401L255.281,84.888z M255.281,84.888"/>
<path fill="#FFFFFF" d="M265.121,79.285c0,0.481-0.16,0.801-0.479,1.039c-0.321,0.243-0.642,0.403-1.039,0.403
	c-0.403,0-0.724-0.16-1.043-0.403c-0.321-0.238-0.399-0.64-0.399-1.039c0-0.397,0.16-0.8,0.481-1.039
	c0.319-0.242,0.64-0.401,1.038-0.401s0.719,0.159,1.039,0.401C264.961,78.485,265.121,78.888,265.121,79.285L265.121,79.285z
	 M264.879,90.485h-2.48v-8.719h2.48V90.485z M264.879,90.485"/>
<path fill="#FFFFFF" d="M270.642,90.728c-0.72,0-1.282-0.082-1.763-0.242c-0.48-0.161-0.801-0.321-1.039-0.641
	c-0.237-0.238-0.398-0.56-0.559-0.957c-0.16-0.402-0.16-0.802-0.16-1.281v-9.603l2.481-0.397v9.44c0,0.238,0,0.398,0.077,0.56
	c0,0.16,0.082,0.32,0.16,0.479c0.082,0.16,0.238,0.238,0.398,0.32c0.16,0.079,0.403,0.161,0.723,0.161L270.642,90.728z
	 M270.642,90.728"/>
<path fill="#FFFFFF" d="M275.84,90.728c-0.719,0-1.28-0.082-1.762-0.242c-0.476-0.161-0.797-0.321-1.039-0.641
	c-0.238-0.238-0.398-0.56-0.559-0.957c-0.16-0.402-0.16-0.802-0.16-1.281v-9.603l2.48-0.397v9.44c0,0.238,0,0.398,0.078,0.56
	c0,0.16,0.082,0.32,0.16,0.479c0.082,0.16,0.242,0.238,0.402,0.32c0.161,0.079,0.398,0.161,0.719,0.161L275.84,90.728z
	 M275.84,90.728"/>
<path fill="#FFFFFF" d="M280.078,88.806c0.481,0,0.801-0.078,0.961-0.16c0.16-0.078,0.32-0.239,0.32-0.481
	c0-0.16-0.16-0.397-0.398-0.558c-0.242-0.161-0.641-0.321-1.121-0.481c-0.398-0.159-0.719-0.319-1.039-0.479
	s-0.562-0.321-0.801-0.56c-0.238-0.241-0.397-0.479-0.479-0.801c-0.161-0.319-0.161-0.64-0.161-1.039c0-0.801,0.32-1.44,0.879-1.922
	c0.562-0.479,1.441-0.718,2.48-0.718c0.562,0,1.043,0.078,1.52,0.16c0.48,0.078,0.883,0.16,1.121,0.319l-0.398,1.918
	c-0.319-0.077-0.562-0.159-0.961-0.237c-0.32-0.082-0.719-0.082-1.121-0.082c-0.801,0-1.117,0.242-1.117,0.64
	c0,0.082,0,0.161,0.078,0.243c0,0.078,0.082,0.16,0.16,0.238c0.078,0.082,0.238,0.16,0.398,0.241
	c0.161,0.078,0.402,0.156,0.641,0.238c0.563,0.239,0.961,0.399,1.359,0.56c0.32,0.159,0.641,0.401,0.801,0.641
	c0.242,0.242,0.321,0.48,0.403,0.718c0.077,0.242,0.159,0.563,0.159,0.961c0,0.883-0.32,1.521-0.961,1.922
	c-0.641,0.399-1.52,0.642-2.723,0.642c-0.797,0-1.438-0.082-1.918-0.242c-0.48-0.161-0.879-0.239-1.039-0.321l0.399-2
	c0.401,0.16,0.878,0.321,1.28,0.403C279.281,88.728,279.68,88.806,280.078,88.806L280.078,88.806z M280.078,88.806"/>
<path fill="#3BB771" d="M40.879,0.165c6,0,12-0.078,18.082-0.078c1.918-0.082,3.359,1.438,4.879,2.481
	c12.16,9.679,16,28.238,8.558,41.839c-4.636,8.957-13.438,15.597-23.277,17.757C36.32,65.125,22,60.004,14.16,49.446
	c-0.719-0.96-1.281-2.082-2.32-2.8c-1.762,0.16-3.281,2.558-2.078,4.082c6.078,8.635,15.758,14.557,26.16,16.16
	c3.039,0.476,6.156,0.476,9.199,0.315c3.758-0.315,7.438-1.437,11.039-2.636c2.399-0.723,4.559-2,6.641-3.282
	c7.597-4.879,13.519-12.397,16.16-21.039c1.519-4.883,2.16-10.16,1.68-15.281c-1.121-9.52-5.762-18.559-12.879-24.961
	c3.117,0,6.238-0.078,9.359,0.402c0.957,0.079,1.438,0.957,2,1.68c5.359,7.359,8.641,16.32,8.719,25.438
	c0.32,10-2.801,20.16-8.801,28.16c-2.719,3.761-6.238,6.883-9.84,9.84c-2.32,1.921-4.961,3.203-7.679,4.479
	c-5.04,2.402-10.559,4-16.161,4.402c-3.679,0.399-7.281-0.242-10.879-0.562c-0.96-0.16-1.921,0.319-2.402,1.202
	c-0.398,0.798,0.082,1.599,0.242,2.398c1.039,0.641,2.239,1.04,3.36,1.2c8.082,0.718,16.32-0.16,23.922-3.039
	c9.117-3.36,17.117-9.603,22.957-17.36c6.32-8.639,9.761-19.358,9.761-30.081c-0.398-9.039-2.879-18.16-7.84-25.84
	c4.079,1.68,7.918,3.84,11.2,6.801c0.718,0.641,1.199,1.36,1.601,2.238c4.399,12.801,3.438,27.122-1.601,39.524
	c-1.121,1.918,1.441,4.078,3.199,2.957c1.601-2.481,2.48-5.359,3.281-8.238c0.879-3.602,1.762-7.2,2.078-10.879
	c0.403-4.883,0.082-9.762-0.16-14.641c2.801,5.117,3.844,11.039,3.762,16.801c0.082,11.758,0.16,23.437,0.082,35.198
	c0,11.599-6.242,22.88-15.922,29.277c-5.281,3.524-11.602,5.684-17.922,6c10.32-4.718,20.242-10.636,28.16-18.878
	c1.364-1.282-0.078-3.598-1.758-3.598c-1.199,0.397-2.082,1.358-3.121,2.159c-10.718,9.841-24,17.277-38.398,20.078
	c-7.039,0.802-14.16,0.238-21.199,0.481c-9.203,0.32-18.563-2.879-25.524-9.039c-7.437-6.563-12-16.321-12.078-26.243
	C0.078,62.567,0,52.806,0,43.126c0-3.121,0-6.238,0.078-9.359c0.563-9.922,5.602-19.36,13.363-25.52
	c5.438-4.402,12.161-7.121,19.039-7.761C35.199,0.087,38,0.165,40.879,0.165L40.879,0.165z M43.199,3.685
	c-0.238,0.801,0.16,1.519,0.403,2.242C46.398,6.888,49.359,7.286,52,8.728c7.281,3.519,12.238,11.277,12.641,19.359
	c0.16,4.16-1.039,8.238-3.039,11.84c-2.403,4.398-6.481,7.758-11.043,9.84c-10,4.64-23.039,0.48-28.637-8.961
	c-1.844-2.961-2.801-6.399-3.684-9.758c-1.277-0.641-3.277-0.242-3.918,1.199c1.52,12.719,13.121,23.438,26,23.598
	c10.719,0.801,21.282-5.758,25.918-15.277c3.043-6.243,3.442-13.68,1.203-20.243c-3.203-9.597-12.242-16.961-22.32-18.078
	C44.238,2.005,43.359,2.806,43.199,3.685L43.199,3.685z M14.48,26.005c0.559,0.801,1.52,1.602,2.559,1.199
	c1.602-0.476,1.762-2.316,2.16-3.679c1.922-8.399,9.121-15.36,17.602-16.797c1.039-0.16,2.16-0.563,2.719-1.602
	c0.8-1.281-0.641-3.121-2.079-2.801C25.602,3.685,15.441,14.087,14.48,26.005L14.48,26.005z M39.039,14.087
	c-4.879,0.879-9.359,4.16-11.437,8.719c-1.204,3.359-1.524,7.121-0.403,10.558c1.199,3.122,3.121,6.161,6,7.922
	c3.762,2.399,8.563,3.121,12.801,1.68c1.121-0.238,1.762-1.359,2.16-2.32c0.32-0.879-0.558-1.598-1.281-1.758
	c-1.438-0.641-2.879,0.316-4.32,0.398c-4.637,0.719-9.36-2.32-11.118-6.64c-1.203-2.801-1.043-6.078,0.321-8.719
	c2.398-4.481,8.078-6.961,12.957-5.359c5.043,1.519,8.722,7.277,7.121,12.48c-0.481,1.84-1.918,3.598-1.36,5.598
	c0.641,1.359,2.801,1.199,3.598,0.082c4.16-5.922,2.641-14.801-2.879-19.442C47.922,14.728,43.359,13.204,39.039,14.087
	L39.039,14.087z M93.359,56.567c-1.679,1.117-2.48,3.117-3.597,4.718c-4.16,6.078-9.602,11.36-15.762,15.36
	c-17.602,12.242-42.238,13.121-60.801,2.558c-1.437-0.797-3.121-1.679-4.879-1.437c-1.039,0.397-1.121,1.758-0.718,2.64
	c0.398,0.957,1.359,1.36,2.16,1.84c5.84,3.438,12.238,5.918,18.879,7.36c6.32,1.359,12.879,1.44,19.359,0.961
	c18.961-1.762,36.801-12.883,46.879-29.043c0.402-0.719,0.961-1.438,1.199-2.239C96.48,57.767,94.879,56.086,93.359,56.567
	L93.359,56.567z M103.602,62.164c-1.364,0.724-1.922,2.242-2.723,3.521c-6.48,10.242-15.68,18.801-26.399,24.319
	c-1.039,0.642-2.32,1.121-3.039,2.16c-0.16,0.883-0.16,1.84,0.481,2.563c0.879,0.558,2.078,0.476,3.039,0.078
	c4.48-2.399,8.961-5.039,12.961-8.238c7.117-5.68,13.117-12.563,18-20.243c0.637-1.039,1.117-2.558,0.238-3.679
	C105.52,61.845,104.398,61.767,103.602,62.164L103.602,62.164z M65.84,94.086c-5.442,1.521-10.961,3.199-16.641,3.681
	c-9.597,1.199-19.519,0.078-28.719-2.801c-1.441-0.32-3.039-1.121-4.48-0.48c-1.52,0.718-1.199,3.121,0.32,3.519
	c5.039,2,10.399,3.043,15.758,3.923c5.684,0.801,11.442,0.397,17.121,0.159c6.082-0.723,12.082-1.84,17.762-4.159
	C69.039,97.285,68.16,93.125,65.84,94.086L65.84,94.086z M65.84,94.086"/>
</svg>
